<?xml version="1.0" standalone="no"?>
<!DOCTYPE svg PUBLIC "-//W3C//DTD SVG 20010904//EN"
 "http://www.w3.org/TR/2001/REC-SVG-20010904/DTD/svg10.dtd">
<svg version="1.0" xmlns="http://www.w3.org/2000/svg"
 width="500.000000pt" height="500.000000pt" viewBox="0 0 500.000000 500.000000"
 preserveAspectRatio="xMidYMid meet">

<g transform="translate(0.000000,500.000000) scale(0.100000,-0.100000)"
fill="#000000" stroke="none">
<path d="M2375 3853 c-248 -23 -512 -145 -700 -325 -148 -141 -265 -316 -319
-476 -36 -105 -67 -272 -64 -339 l3 -58 65 -3 66 -3 12 108 c30 266 132 503
303 703 76 89 118 130 179 172 25 18 65 48 90 67 25 19 82 52 128 74 68 33 94
40 150 42 47 1 79 8 107 23 22 12 36 21 30 20 -5 -1 -28 -3 -50 -5z"/>
<path d="M2611 3845 c3 -2 23 -12 45 -21 21 -9 36 -13 32 -8 -4 4 -3 13 3 21
9 10 2 13 -36 13 -27 0 -46 -2 -44 -5z"/>
<path d="M2712 3835 c3 -4 25 -11 49 -16 181 -41 465 -256 598 -452 133 -197
215 -436 223 -650 l3 -68 65 3 65 3 6 40 c3 22 7 31 8 21 0 -11 4 -17 7 -14
11 12 -38 246 -72 343 -122 348 -432 649 -779 758 -81 25 -185 44 -173 32z"/>
<path d="M2434 3786 c-23 -7 -79 -33 -125 -57 -70 -36 -106 -66 -216 -175 -73
-72 -133 -138 -133 -147 0 -8 -11 -28 -24 -44 -27 -32 -85 -146 -116 -225 -28
-72 -67 -239 -75 -318 -3 -36 -8 -89 -11 -117 l-5 -53 145 0 145 0 3 353 c3
345 3 353 25 388 26 40 80 80 133 97 19 6 95 12 168 14 l132 3 0 147 c0 82 -1
148 -2 147 -2 0 -21 -6 -44 -13z"/>
<path d="M2540 3648 l0 -153 148 0 c144 0 148 -1 199 -29 87 -48 101 -85 106
-279 3 -135 3 -138 27 -150 16 -8 26 -23 28 -40 3 -22 -3 -31 -27 -45 -27 -15
-31 -22 -31 -63 0 -39 4 -47 25 -57 31 -14 32 -36 3 -56 -16 -12 -22 -28 -26
-71 l-4 -55 146 0 146 0 0 66 c0 363 -206 771 -484 958 -67 45 -228 126 -250
126 -3 0 -6 -69 -6 -152z"/>
<path d="M2760 3765 c0 -3 33 -26 73 -52 158 -103 328 -317 401 -505 57 -148
95 -313 103 -444 l6 -114 94 0 93 0 0 35 c0 123 -64 377 -125 495 -36 69 -143
226 -191 278 -62 69 -182 167 -259 214 -94 56 -195 104 -195 93z"/>
<path d="M2158 3720 c-151 -76 -316 -217 -435 -373 -62 -80 -147 -249 -177
-347 -27 -91 -56 -251 -56 -312 l0 -38 89 0 89 0 7 68 c29 317 123 581 274
769 14 18 37 47 51 64 13 18 69 68 125 112 145 115 144 113 33 57z"/>
<path d="M2148 3404 c-25 -18 -39 -38 -47 -67 -6 -25 -12 -173 -13 -365 l-3
-322 196 0 197 0 8 183 c7 179 7 181 21 132 27 -94 32 -130 33 -222 l0 -93
195 0 196 0 -2 332 c-1 304 -2 335 -20 369 -10 20 -30 47 -45 58 -26 20 -37
21 -353 21 l-326 0 -37 -26z m540 -44 c2 -13 -2 -27 -10 -31 -7 -5 -83 -9
-169 -9 -143 0 -157 2 -174 20 -35 39 -11 45 177 44 171 -2 173 -2 176 -24z"/>
<path d="M1323 2593 c-36 -5 -38 -10 -34 -88 5 -112 62 -301 125 -420 204
-384 588 -649 980 -677 25 -2 41 2 43 10 3 6 -3 12 -14 12 -28 0 -243 56 -293
76 -48 19 -110 53 -110 60 0 3 8 1 18 -4 27 -14 85 -39 107 -46 14 -5 11 0
-10 18 -16 14 -34 25 -38 26 -16 0 -177 121 -222 166 -40 39 -75 56 -75 37 0
-4 15 -23 32 -43 18 -19 4 -8 -30 25 -78 74 -189 220 -232 304 -69 137 -120
319 -135 484 l-7 67 -36 -2 c-20 0 -52 -3 -69 -5z m633 -974 c3 -6 -5 -3 -20
6 -14 10 -26 19 -26 22 0 7 39 -17 46 -28z m39 -29 c10 -11 16 -20 13 -20 -3
0 -13 9 -23 20 -10 11 -16 20 -13 20 3 0 13 -9 23 -20z"/>
<path d="M1501 2591 c-21 -14 -6 -159 30 -289 36 -130 96 -250 190 -381 189
-265 594 -512 789 -482 45 7 96 -11 85 -29 -11 -18 26 -16 130 6 142 29 235
63 364 133 120 65 301 213 352 288 18 26 52 74 76 105 59 77 116 187 149 283
27 81 73 291 74 333 0 29 -38 44 -104 40 l-51 -3 -7 -85 c-8 -107 -30 -192
-56 -218 -11 -11 -23 -38 -27 -60 -3 -22 -15 -49 -26 -61 -11 -11 -16 -21 -12
-21 4 0 4 -4 -2 -8 -5 -4 -23 -34 -40 -67 -43 -86 -193 -281 -266 -345 -99
-87 -190 -153 -255 -185 -39 -20 -53 -31 -41 -33 10 -2 52 12 93 32 88 42 99
39 14 -4 -103 -52 -260 -106 -260 -90 0 5 15 12 33 15 17 4 48 21 66 38 19 16
58 40 85 53 204 92 461 379 562 627 40 99 84 297 84 380 l0 37 -94 0 -94 0 -7
-77 c-9 -104 -51 -292 -68 -309 -4 -4 -7 -19 -7 -33 0 -18 -3 -22 -9 -12 -11
17 -23 -1 -15 -23 3 -9 2 -16 -3 -16 -5 0 -9 -10 -10 -21 -1 -12 -8 -29 -16
-38 -8 -9 -12 -22 -10 -29 3 -7 -1 -11 -9 -10 -7 2 -13 -4 -13 -12 0 -8 -9
-24 -21 -35 -11 -11 -49 -63 -85 -115 -72 -107 -198 -237 -284 -295 -74 -48
-181 -95 -220 -94 -24 0 -20 3 25 18 89 29 174 76 252 142 81 67 162 154 193
205 11 18 43 71 70 116 68 111 102 193 132 318 26 110 54 300 46 313 -2 4 -69
7 -149 7 l-144 0 0 -261 c0 -261 -8 -342 -37 -365 -7 -7 -13 -16 -12 -20 4
-15 -13 -48 -38 -76 -28 -30 -30 -37 -12 -49 10 -6 0 -14 -31 -28 -42 -19 -65
-21 -350 -21 -286 0 -308 2 -350 21 -56 25 -86 53 -113 104 -21 38 -22 54 -25
368 l-3 327 -132 0 c-73 0 -138 -4 -146 -9 -18 -12 -1 -177 33 -311 25 -101
89 -258 129 -318 13 -21 39 -61 56 -89 31 -50 209 -229 275 -277 36 -26 178
-91 219 -100 l27 -6 0 65 c0 37 4 65 10 65 6 0 10 -32 10 -76 l0 -77 -34 6
c-19 3 -81 28 -137 55 -76 36 -122 67 -169 111 -127 119 -153 141 -167 141 -8
0 1 -18 24 -45 20 -25 40 -45 44 -45 4 0 14 -12 24 -27 9 -16 -13 2 -50 39
-59 60 -65 69 -55 88 11 20 10 21 -9 11 -18 -10 -26 -2 -81 81 -80 120 -101
161 -143 293 -42 130 -67 264 -67 358 l0 67 -82 0 c-46 0 -89 -4 -97 -9z
m1499 -874 c0 -2 -19 -21 -42 -42 l-43 -40 40 43 c36 39 45 47 45 39z m145
-47 c-3 -5 -16 -15 -28 -21 -19 -9 -19 -8 3 10 28 23 34 26 25 11z"/>
<path d="M2095 2594 c-15 -6 -13 -633 2 -659 22 -38 71 -77 109 -86 22 -4 168
-9 325 -9 281 0 287 0 320 23 18 12 44 40 56 62 22 39 23 47 23 358 l0 317
-193 0 -193 0 -10 -167 c-7 -111 -14 -168 -22 -171 -7 -2 -12 -26 -12 -59 0
-31 -2 -54 -4 -52 -3 2 -7 103 -10 224 l-5 220 -188 2 c-103 1 -192 0 -198 -3z
m453 -606 c29 -29 4 -98 -35 -98 -45 0 -73 78 -35 99 23 14 55 14 70 -1z"/>
<path d="M3740 2266 c-7 -25 -15 -44 -19 -42 -4 3 -12 -8 -19 -23 -7 -15 -20
-36 -30 -47 -9 -11 -35 -54 -56 -95 -78 -148 -230 -324 -379 -438 -58 -44
-298 -171 -324 -171 -8 0 -11 -5 -8 -10 4 -7 -3 -8 -21 -4 -21 5 -25 4 -19 -6
5 -8 4 -11 -3 -6 -18 11 -61 -4 -55 -20 3 -8 -1 -14 -10 -14 -8 0 -17 4 -19 9
-2 6 -23 5 -53 -1 -27 -6 -60 -11 -73 -10 -22 0 -22 -1 -5 -14 16 -13 15 -13
-11 -4 -16 6 -31 8 -34 5 -3 -3 0 -5 7 -5 7 0 9 -5 5 -11 -14 -23 253 26 361
67 11 4 17 4 13 0 -4 -5 -46 -21 -95 -37 -48 -16 -72 -26 -53 -23 157 25 416
164 551 295 144 141 293 348 273 380 -4 7 -3 9 4 5 12 -7 87 178 77 194 -3 5
-1 10 5 10 7 0 10 6 7 14 -3 8 -2 16 3 18 5 2 6 9 1 16 -5 9 -12 -1 -21 -32z
m-157 -360 c-12 -22 -173 -205 -218 -250 -47 -45 -203 -150 -292 -195 -93 -46
-91 -37 2 12 182 95 329 220 463 390 43 55 62 73 45 43z"/>
<path d="M1479 1842 c11 -16 28 -35 38 -43 9 -8 2 5 -17 29 -38 48 -52 57 -21
14z"/>
<path d="M2855 1841 c-3 -5 0 -13 6 -17 7 -4 9 -3 5 4 -3 5 0 13 6 15 9 4 10
6 1 6 -6 1 -14 -3 -18 -8z"/>
<path d="M1572 1730 c24 -27 61 -65 84 -84 101 -84 317 -216 332 -202 3 3 1 6
-4 6 -6 0 -19 7 -30 15 -15 12 -11 12 18 -1 20 -10 35 -21 33 -24 -9 -14 175
-81 214 -79 9 0 0 5 -19 10 -59 16 -181 61 -177 66 3 2 27 -5 55 -16 74 -29
208 -59 282 -63 54 -2 65 0 68 14 3 14 -10 17 -85 22 -48 4 -101 11 -118 15
-78 23 -180 66 -284 118 -63 32 -117 59 -121 61 -4 2 -10 -4 -13 -12 -5 -11
12 -26 58 -52 36 -19 65 -38 65 -41 0 -6 -113 57 -142 79 -20 16 -21 18 -3 12
l20 -6 -20 13 c-31 19 -55 46 -47 55 4 4 1 4 -5 0 -21 -12 -36 4 -21 22 11 15
11 15 -3 5 -9 -7 -20 -9 -24 -5 -5 4 -5 1 -1 -5 18 -32 -16 -7 -78 57 -38 39
-70 70 -73 70 -2 0 15 -22 39 -50z m184 -142 c4 -7 -9 1 -29 16 -20 16 -37 30
-37 33 0 7 58 -36 66 -49z"/>
<path d="M2258 1353 c7 -3 16 -2 19 1 4 3 -2 6 -13 5 -11 0 -14 -3 -6 -6z"/>
<path d="M2313 1343 c9 -2 25 -2 35 0 9 3 1 5 -18 5 -19 0 -27 -2 -17 -5z"/>
</g>
</svg>
